# xmcd CD database file
#
# Track frame offsets:
#	150
#	15341
#	16808
#	34717
#	39501
#	51715
#	68739
#	72902
#	87457
#	102484
#	105359
#	122810
#	139727
#	141656
#	158695
#	171519
#	176041
#	191017
#	200676
#	215904
#	230323
#	247409
#	264841
#	266225
#	278645
#
# Disc length: 3980 seconds
#
# Revision: 0
# Processed by: cddbd v1.5PL3 Copyright (c) Steve Scherf et al.
# Submitted via: CDex 1.50beta9
#
DISCID=800f8a19
DTITLE=Handsome Family - Live at Shuba's Tavern
DYEAR=2000
DGENRE=Country
TTITLE0=Amelia Earhart Vs. The Dancing Bear
TTITLE1=Good Toothpicks
TTITLE2=So Much Wine
TTITLE3=Czar Bar
TTITLE4=Tin Foil
TTITLE5=Beautiful Thing
TTITLE6=Vienna Sausage Hotline
TTITLE7=Giant of Illinois
TTITLE8=My Sister's Tiny Hands
TTITLE9=Names for All His Shirts
TTITLE10=Cathedrals
TTITLE11=Weightless Again
TTITLE12=Bony Bread
TTITLE13=Winnebago Skeletons
TTITLE14=Drunk by Noon
TTITLE15=Magic Balls (Introduction)
TTITLE16=Sad Milkman
TTITLE17=Magic Balls (Conclusion)
TTITLE18=I Know You Are There
TTITLE19=Down In The Ground
TTITLE20=Arlene
TTITLE21=Moving Furniture Around
TTITLE22=Freebird
TTITLE23=My Ghost
TTITLE24=Woman Downstairs
EXTD=YEAR: 2000
EXTT0=
EXTT1=
EXTT2=
EXTT3=
EXTT4=
EXTT5=
EXTT6=
EXTT7=
EXTT8=
EXTT9=
EXTT10=
EXTT11=
EXTT12=
EXTT13=
EXTT14=
EXTT15=
EXTT16=
EXTT17=
EXTT18=
EXTT19=
EXTT20=
EXTT21=
EXTT22=
EXTT23=
EXTT24=
PLAYORDER=
